:SAMPLES-PER-SECOND 24
:FULLY-SPECIFIED
:DEGREES
423
root  -2.80409 38.1014 -0.384872 91.4568 82.1128 95.0719
RightUpLeg  -13.1054 -41.225 -18.0422
RightLeg  67.242 2.44787 5.75637
RightFoot  -0.418771 -0.572005 5.94685
RightToes  -1.46203e-006 3.27826e-006 1.63871e-007
Spine  7.21163 4.31854 -1.51454
Spine1  13.6494 5.90759 -7.3173
HEad  -34.186 57.6281 -41.438
LeftShoulder1  1.92568 -3.43098 -21.4011
LeftArm  13.1674 1.03173 -44.5448
LeftForeArm  24.8039 -55.7325 -14.4487
LeftHand  -0.0582594 5.10371 20.9757
RightShoulder  3.40156 5.85823 30.433
RightArm  11.1635 -9.88243 34.9898
RightForeArm  127.672 75.6667 134.15
RightHand  0.0160293 -5.99096 -7.83134
LeftUpLeg  -10.1674 11.71 4.88994
LeftLeg  23.3589 -8.10591 -4.13046
LeftFoot  -2.8302 0.817869 -10.7407
LeftToes  1.24767e-006 1.47042e-008 1.32732e-009
424
root  -2.49031 38.684 0.350682 104.282 84.3794 107.651
RightUpLeg  -12.3905 -38.999 -18.7887
RightLeg  64.0699 1.8023 3.53633
RightFoot  -0.735213 -0.524351 5.58375
RightToes  -1.46203e-006 3.27826e-006 1.63871e-007
Spine  7.19147 3.61031 -0.630366
Spine1  12.2349 4.94314 -6.73153
HEad  -31.8333 59.1295 -40.2683
LeftShoulder1  1.8257 -3.09602 -21.2929
LeftArm  13.9768 1.40077 -47.2052
LeftForeArm  22.2568 -37.5944 -7.09305
LeftHand  0.794195 10.4014 18.6055
RightShoulder  3.69577 6.13499 32.4639
RightArm  11.0142 -20.18 35.9886
RightForeArm  128.268 74.7774 136.994
RightHand  0.117462 -8.19899 -6.30977
LeftUpLeg  -6.78057 5.80845 8.46125
LeftLeg  16.1912 -3.11791 -2.2827
LeftFoot  0.140106 1.27158 -12.6076
LeftToes  1.24767e-006 1.47042e-008 1.32732e-009
425
root  -2.32833 39.0108 1.13431 128.778 86.0016 130.922
RightUpLeg  -12.2845 -34.164 -18.7742
RightLeg  56.8689 -0.219956 -0.767745
RightFoot  -0.357224 -0.409513 4.26135
RightToes  -1.46203e-006 3.27826e-006 1.63871e-007
Spine  7.05032 2.38612 -0.143825
Spine1  10.2577 3.25582 -5.06838
HEad  -33.4549 60.375 -41.8495
LeftShoulder1  1.96627 -3.03178 -23.8394
LeftArm  17.6973 4.96401 -43.7851
LeftForeArm  11.2533 -29.7269 -5.82479
LeftHand  0.845132 10.9725 17.9331
RightShoulder  3.79258 6.25331 32.9891
RightArm  13.5401 -27.7042 33.2131
RightForeArm  136.652 69.2559 149.882
RightHand  -0.050738 -7.13097 0.770696
LeftUpLeg  -7.22795 5.60952 11.5005
LeftLeg  13.5981 -2.27076 -0.997176
LeftFoot  2.68886 1.83608 -14.9707
LeftToes  1.24767e-006 1.47042e-008 1.32732e-009
426
root  -2.37283 38.6685 1.93911 158.07 85.3459 159.549
RightUpLeg  -11.1947 -27.3964 -20.6567
RightLeg  49.1404 -2.41951 -3.3315
RightFoot  0.741753 -0.163182 1.60213
RightToes  -1.46203e-006 3.27826e-006 1.63871e-007
Spine  7.78251 1.2881 -0.366845
Spine1  9.07147 1.63929 -3.13506
HEad  -35.3315 59.5641 -41.9796
LeftShoulder1  2.09081 -3.26016 -24.7167
LeftArm  24.4151 8.33779 -40.8178
LeftForeArm  -3.84126 -27 -6.00676
LeftHand  0.258377 7.5129 14.8292
RightShoulder  3.78401 6.27235 32.8252
RightArm  15.593 -32.2062 27.6072
RightForeArm  139.953 61.2414 159.101
RightHand  -0.11781 -6.48707 7.5843
LeftUpLeg  -11.8911 11.002 14.1165
LeftLeg  19.3853 -7.51618 -2.80734
LeftFoot  2.54025 1.94395 -16.0355
LeftToes  1.24767e-006 1.47042e-008 1.32732e-009
427
root  -2.43994 37.6672 2.64901 169.061 84.4149 171.556
RightUpLeg  -8.63154 -20.3728 -24.8907
RightLeg  42.8109 -4.32846 -4.57267
RightFoot  -0.104425 -0.00732775 0.067207
RightToes  -1.46203e-006 3.27826e-006 1.63871e-007
Spine  9.06161 0.740419 0.619676
Spine1  9.82334 1.06585 -3.02449
HEad  -35.9997 58.1082 -41.0819
LeftShoulder1  2.07316 -3.56281 -23.0656
LeftArm  27.6703 11.3082 -41.1875
LeftForeArm  -8.11512 -26.7845 -6.17314
LeftHand  -0.0635564 4.85362 10.2069
RightShoulder  3.68889 6.19283 32.1595
RightArm  15.0212 -33.5714 21.8871
RightForeArm  139.058 54.1856 163.752
RightHand  -0.115039 -6.46368 7.66889
LeftUpLeg  -15.3556 12.6053 16.2418
LeftLeg  27.3636 -9.00277 -4.68424
LeftFoot  -1.54597 1.28936 -14.871
LeftToes  1.24767e-006 1.47042e-008 1.32732e-009
